<svg version="1.2" xmlns="http://www.w3.org/2000/svg" viewBox="0 0 1000 400" width="1000" height="400">
	<title>New Project</title>
	<defs>
		<linearGradient id="g1" x2="1" gradientUnits="userSpaceOnUse" gradientTransform="matrix(953,0,0,359,23,199.5)">
			<stop offset="0" stop-color="#173977"/>
			<stop offset="1" stop-color="#709ef3"/>
		</linearGradient>
		<linearGradient id="g2" x2="1" gradientUnits="userSpaceOnUse" gradientTransform="matrix(179,0,0,156.403,706,203.454)">
			<stop offset="0" stop-color="#1b3563"/>
			<stop offset="1" stop-color="#1b4ba2"/>
		</linearGradient>
	</defs>
	<style>
		tspan { white-space:pre } 
		.s0 { fill: url(#g1) } 
		.s1 { fill: url(#g2) } 
		.t2 { font-size: 158px;fill: #fefefe;font-weight: 700;font-family: "DejaVuSans-Bold", "DejaVu Sans" } 
	</style>
	<path id="Shape 1" class="s0" d="m23 35c0-8.3 6.7-15 15-15h923c8.3 0 15 6.7 15 15v329c0 8.3-6.7 15-15 15h-923c-8.3 0-15-6.7-15-15z"/>
	<text id="" style="transform: matrix(1,0,0,1,23,20)" >
	</text>
	<path id="Shape 2" class="s1" d="m706 140.3c0-8.3 6.7-15 15-15h149c8.3 0 15 6.7 15 15v126.4c0 8.2-6.7 15-15 15h-149c-8.3 0-15-6.8-15-15z"/>
	<text id="LinkedIn" style="transform: matrix(1,0,0,1,118,259)" >
		<tspan x="0" y="0" class="t2">L</tspan><tspan  y="0" class="t2">i</tspan><tspan  y="0" class="t2">n</tspan><tspan  y="0" class="t2">k</tspan><tspan  y="0" class="t2">e</tspan><tspan  y="0" class="t2">d</tspan><tspan  y="0" class="t2">I</tspan><tspan  y="0" class="t2">n
</tspan>
	</text>
</svg>